<svg xmlns="http://www.w3.org/2000/svg" viewBox="0 0 96 96">
  <path d="M34 66 q-8 8 -6 18 q8 2 10 -8 z" fill="#147a89"/>
  <path d="M48 70 q-4 10 0 18 q6 -6 4 -16 z" fill="#0b3b45"/>
  <path d="M62 66 q8 8 6 18 q-8 2 -10 -8 z" fill="#147a89"/>
  <path d="M28 48 q0 -22 20 -22 q20 0 20 22 q0 18 -20 18 q-20 0 -20 -18 z" fill="#147a89"/>
  <ellipse cx="48" cy="52" rx="12" ry="10" fill="#66c2cf"/>
  <circle cx="41" cy="42" r="4.5" fill="#bfe9ef"/>
  <circle cx="55" cy="42" r="4.5" fill="#bfe9ef"/>
  <circle cx="41" cy="42" r="2" fill="#0b3b45"/>
  <circle cx="55" cy="42" r="2" fill="#0b3b45"/>
</svg>
