<svg xmlns="http://www.w3.org/2000/svg" viewBox="0 0 96 96">
  <path d="M30 78 h12 v8 h-12 z" fill="#2f3742"/>
  <path d="M54 78 h12 v8 h-12 z" fill="#2f3742"/>
  <path d="M32 46 q16 -12 32 0 q6 18 -4 32 q-12 6 -24 0 q-10 -14 -4 -32 z" fill="#5b6773"/>
  <path d="M40 58 q8 -5 16 0 q2 10 -2 16 q-6 3 -12 0 q-4 -6 -2 -16 z" fill="#94a3b3"/>
  <path d="M28 52 l-8 6 l4 10 l7 -4 z" fill="#5b6773"/>
  <path d="M68 52 l8 6 l-4 10 l-7 -4 z" fill="#5b6773"/>
  <path d="M38 32 h20 l4 10 h-28 z" fill="#5b6773"/>
  <circle cx="42" cy="38" r="2.6" fill="#cbd5e1"/>
  <circle cx="54" cy="38" r="2.6" fill="#cbd5e1"/>
</svg>
